<svg xmlns="http://www.w3.org/2000/svg" xmlns:xlink="http://www.w3.org/1999/xlink" width="24" height="24" version="1.1" viewBox="0 0 24 24"><title>Icons / Error</title><desc>Created with Sketch.</desc><g id="Icons-/-Error" fill="none" fill-rule="evenodd" stroke="none" stroke-width="1"><g id="Group" stroke="#DF3131" transform="translate(3.000000, 3.000000)"><path id="Oval" d="M9,17.5 C4.30557963,17.5 0.5,13.6944204 0.5,9 C0.5,4.30557963 4.30557963,0.5 9,0.5 C13.6944204,0.5 17.5,4.30557963 17.5,9 C17.5,13.6944204 13.6944204,17.5 9,17.5 Z M9,17.5 C13.6944204,17.5 17.5,13.6944204 17.5,9 C17.5,4.30557963 13.6944204,0.5 9,0.5 C4.30557963,0.5 0.5,4.30557963 0.5,9 C0.5,13.6944204 4.30557963,17.5 9,17.5 Z"/><path id="Line" fill-rule="nonzero" d="M9,4.02071643 L9,11.0030927"/><path id="Line-Copy" fill-rule="nonzero" d="M9,13.0093765 L9,13.9873194"/></g></g></svg>